<svg width="332" height="285" viewBox="0 0 332 285" fill="none" xmlns="http://www.w3.org/2000/svg">
<g opacity="0.798">
<path opacity="0.798" d="M299.441 264.046C301.195 266.059 303.613 267.246 306.168 267.348C308.723 267.45 311.208 266.459 313.078 264.592C314.939 262.712 316.03 260.112 316.113 257.36C316.196 254.607 315.265 251.926 313.522 249.902L301.175 235.644L287.094 249.787L299.441 264.046Z" fill="black"/>
<path opacity="0.798" d="M275.761 236.702L287.772 250.569L301.853 236.426L289.844 222.558C288.091 220.545 285.672 219.357 283.117 219.255C280.562 219.153 278.078 220.144 276.207 222.012C274.346 223.891 273.255 226.492 273.171 229.244C273.087 231.997 274.019 234.678 275.761 236.702Z" fill="#FA8072"/>
<path opacity="0.2" d="M273.181 229.999C273.414 227.518 274.472 225.217 276.16 223.518C278.031 221.65 280.515 220.659 283.07 220.762C285.625 220.864 288.044 222.051 289.797 224.064L301.129 237.151L301.851 236.426L289.842 222.558C288.088 220.545 285.67 219.358 283.115 219.256C280.559 219.153 278.075 220.144 276.204 222.012C275.196 223.028 274.404 224.268 273.882 225.646C273.36 227.025 273.121 228.509 273.18 229.999L273.181 229.999Z" fill="black"/>
<path opacity="0.798" d="M248.122 233.109C249.876 235.122 252.294 236.31 254.849 236.412C257.404 236.514 259.889 235.523 261.759 233.655C263.62 231.776 264.711 229.176 264.794 226.423C264.877 223.671 263.946 220.99 262.203 218.966L249.856 204.708L235.774 218.851L248.122 233.109Z" fill="black"/>
<path opacity="0.798" d="M224.442 205.765L236.453 219.632L250.534 205.489L238.525 191.621C236.771 189.608 234.353 188.42 231.798 188.318C229.242 188.216 226.758 189.207 224.887 191.075C223.027 192.954 221.936 195.554 221.853 198.307C221.77 201.059 222.701 203.74 224.443 205.764L224.442 205.765Z" fill="#FA8072"/>
<path opacity="0.2" d="M221.862 199.061C222.095 196.581 223.153 194.28 224.841 192.581C226.712 190.713 229.196 189.722 231.751 189.824C234.306 189.927 236.725 191.114 238.478 193.127L249.809 206.214L250.532 205.488L238.522 191.621C236.769 189.608 234.351 188.42 231.795 188.318C229.24 188.216 226.756 189.207 224.885 191.075C223.877 192.091 223.085 193.33 222.564 194.709C222.042 196.087 221.803 197.572 221.862 199.061Z" fill="black"/>
<path opacity="0.798" d="M216.945 167.904C215.106 169.808 214.044 172.422 213.992 175.176C213.94 177.929 214.902 180.598 216.667 182.599C218.443 184.589 220.874 185.744 223.43 185.813C225.986 185.882 228.459 184.858 230.308 182.966L243.336 169.557L229.973 154.495L216.945 167.904Z" fill="black"/>
<path opacity="0.798" d="M241.929 142.188L229.258 155.229L242.622 170.291L255.293 157.249C257.132 155.345 258.193 152.731 258.245 149.977C258.298 147.224 257.336 144.555 255.571 142.554C253.795 140.564 251.364 139.408 248.808 139.34C246.252 139.271 243.779 140.294 241.929 142.187L241.929 142.188Z" fill="#FA8072"/>
<path opacity="0.2" d="M248.106 139.358C250.412 139.59 252.566 140.712 254.17 142.518C255.936 144.519 256.897 147.188 256.845 149.941C256.793 152.694 255.731 155.309 253.892 157.213L241.935 169.52L242.621 170.292L255.291 157.25C257.13 155.346 258.192 152.732 258.244 149.979C258.296 147.225 257.335 144.556 255.57 142.555C254.61 141.477 253.446 140.633 252.158 140.081C250.87 139.529 249.488 139.282 248.106 139.358Z" fill="black"/>
<path opacity="0.798" d="M253.791 31.179C251.952 33.0832 250.89 35.6975 250.838 38.4509C250.786 41.2043 251.748 43.873 253.513 45.8742C255.289 47.8641 257.72 49.0196 260.276 49.0884C262.832 49.1572 265.305 48.1337 267.154 46.2414L280.182 32.8321L266.819 17.7705L253.791 31.179Z" fill="black"/>
<path opacity="0.798" d="M278.775 5.46262L266.105 18.5044L279.468 33.5659L292.139 20.5242C293.978 18.6201 295.039 16.0059 295.091 13.2525C295.143 10.4992 294.182 7.83052 292.417 5.82942C290.641 3.83949 288.209 2.68398 285.653 2.61525C283.097 2.54652 280.625 3.57017 278.775 5.46262Z" fill="#FA8072"/>
<path opacity="0.2" d="M284.952 2.63228C287.258 2.86451 289.412 3.98686 291.017 5.79231C292.782 7.79342 293.743 10.4622 293.691 13.2156C293.639 15.969 292.578 18.5833 290.739 20.4874L278.782 32.7946L279.467 33.567L292.138 20.5252C293.977 18.6211 295.038 16.0069 295.09 13.2536C295.142 10.5002 294.181 7.83157 292.416 5.83047C291.456 4.75194 290.292 3.90803 289.004 3.35625C287.716 2.80447 286.334 2.55779 284.952 2.63304L284.952 2.63228Z" fill="black"/>
<path opacity="0.798" d="M162.538 264.96C160.699 266.864 159.637 269.478 159.585 272.231C159.533 274.985 160.495 277.654 162.26 279.655C164.036 281.645 166.467 282.8 169.023 282.869C171.579 282.938 174.052 281.914 175.901 280.022L188.929 266.613L175.566 251.551L162.538 264.96Z" fill="black"/>
<path opacity="0.798" d="M187.522 239.243L174.852 252.285L188.215 267.347L200.886 254.305C202.725 252.401 203.786 249.787 203.838 247.033C203.89 244.28 202.929 241.611 201.164 239.61C199.388 237.62 196.956 236.464 194.4 236.396C191.844 236.327 189.371 237.35 187.522 239.243L187.522 239.243Z" fill="#FA8072"/>
<path opacity="0.2" d="M193.699 236.413C196.005 236.646 198.159 237.768 199.764 239.573C201.529 241.574 202.491 244.243 202.439 246.997C202.386 249.75 201.325 252.364 199.486 254.268L187.529 266.576L188.214 267.348L200.885 254.306C202.724 252.402 203.785 249.788 203.837 247.035C203.89 244.281 202.928 241.613 201.163 239.611C200.203 238.533 199.039 237.689 197.751 237.137C196.463 236.585 195.081 236.339 193.699 236.414L193.699 236.413Z" fill="black"/>
<path opacity="0.798" d="M60.3905 182.146C62.1439 184.159 64.5623 185.347 67.1175 185.449C69.6726 185.551 72.1569 184.56 74.0276 182.692C75.8881 180.813 76.9791 178.213 77.0623 175.46C77.1455 172.708 76.2142 170.027 74.4717 168.003L62.1243 153.744L48.0431 167.888L60.3905 182.146Z" fill="black"/>
<path opacity="0.798" d="M36.71 154.802L48.721 168.669L62.8022 154.526L50.793 140.658C49.0396 138.645 46.6212 137.457 44.066 137.355C41.5108 137.253 39.0266 138.244 37.1558 140.112C35.2952 141.991 34.2042 144.591 34.121 147.344C34.0378 150.096 34.9692 152.777 36.7118 154.801L36.71 154.802Z" fill="#FA8072"/>
<path opacity="0.2" d="M34.1293 148.098C34.3622 145.618 35.4201 143.317 37.1078 141.618C38.9785 139.75 41.4627 138.759 44.0179 138.862C46.5731 138.964 48.9915 140.151 50.7449 142.164L62.0763 155.251L62.7984 154.526L50.7892 140.657C49.0358 138.645 46.6174 137.457 44.0623 137.355C41.5071 137.253 39.0229 138.244 37.1521 140.112C36.144 141.128 35.3522 142.367 34.8305 143.746C34.3089 145.124 34.0697 146.609 34.1293 148.098Z" fill="black"/>
<path opacity="0.798" d="M283.463 90.1594C283.472 87.0664 284.369 84.0565 286.031 81.5426C287.694 79.0287 290.039 77.1339 292.747 76.118C295.454 75.1021 298.391 75.015 301.154 75.8685C303.918 76.722 306.372 78.4743 308.181 80.8852C309.99 83.2961 311.065 86.2474 311.259 89.3345C311.452 92.4215 310.755 95.4931 309.262 98.1279C307.769 100.763 305.554 102.832 302.921 104.051C300.288 105.271 297.365 105.581 294.553 104.939C291.413 104.223 288.593 102.36 286.572 99.6667C284.551 96.9734 283.453 93.6148 283.463 90.1594Z" fill="#FA8072"/>
<path opacity="0.2" d="M294.554 104.941L294.637 75.561C296.474 75.1763 298.367 75.1918 300.202 75.6068L300.12 104.987C298.282 105.371 296.39 105.356 294.554 104.941Z" fill="black"/>
<path opacity="0.798" d="M140.419 233.035C140.428 229.942 141.325 226.933 142.987 224.419C144.649 221.905 146.995 220.01 149.702 218.994C152.41 217.978 155.347 217.891 158.11 218.744C160.873 219.598 163.328 221.35 165.137 223.761C166.946 226.172 168.021 229.123 168.214 232.21C168.408 235.297 167.71 238.369 166.218 241.004C164.725 243.639 162.51 245.708 159.877 246.927C157.243 248.147 154.32 248.457 151.509 247.815C148.368 247.099 145.549 245.236 143.528 242.543C141.507 239.849 140.409 236.491 140.419 233.035Z" fill="#FA8072"/>
<path opacity="0.2" d="M151.51 247.816L151.592 218.437C153.43 218.052 155.322 218.067 157.158 218.482L157.075 247.862C155.237 248.247 153.345 248.231 151.51 247.816Z" fill="black"/>
<path opacity="0.798" d="M277.241 64.1137C277.25 61.2778 278.005 58.5063 279.419 56.1211C280.833 53.7359 282.848 51.835 285.23 50.6391C287.612 49.4432 290.263 49.0013 292.875 49.3649C295.487 49.7284 297.954 50.8825 299.988 52.693C302.022 54.5035 303.54 56.8961 304.366 59.593C305.192 62.2899 305.292 65.1804 304.654 67.9288C304.016 70.6772 302.667 73.1707 300.763 75.1197C298.859 77.0687 296.478 78.3932 293.897 78.9394C292.059 79.3241 290.167 79.3085 288.332 78.8937C285.191 78.1769 282.371 76.3143 280.35 73.621C278.329 70.9277 277.231 67.5691 277.241 64.1137Z" fill="#FA8072"/>
<path opacity="0.2" d="M288.333 78.8949L288.415 49.5151C290.253 49.1304 292.145 49.146 293.981 49.5608L293.898 78.9407C292.06 79.3253 290.168 79.3098 288.333 78.8949Z" fill="black"/>
<path opacity="0.798" d="M0.367052 151.13C0.376157 148.037 1.27325 145.027 2.93532 142.514C4.59739 140 6.94304 138.105 9.65055 137.089C12.3581 136.073 15.2948 135.986 18.0581 136.839C20.8214 137.693 23.2759 139.445 25.0849 141.856C26.8939 144.267 27.9689 147.218 28.1624 150.305C28.3559 153.392 27.6585 156.464 26.1658 159.099C24.673 161.734 22.4581 163.803 19.8248 165.022C17.1914 166.242 14.2686 166.552 11.4572 165.91C8.31649 165.194 5.49707 163.331 3.47614 160.638C1.4552 157.944 0.356878 154.586 0.367052 151.13Z" fill="#FA8072"/>
<path opacity="0.2" d="M11.4577 165.912L11.5403 136.532C13.3781 136.147 15.2704 136.163 17.106 136.577L17.0234 165.957C15.1856 166.342 13.2933 166.326 11.4577 165.912Z" fill="black"/>
<path opacity="0.798" d="M186.881 205.561C184.992 203.577 183.661 201.058 183.044 198.298C182.427 195.538 182.548 192.65 183.394 189.969C184.24 187.287 185.776 184.923 187.823 183.15C189.871 181.378 192.345 180.269 194.96 179.954C197.575 179.639 200.222 180.13 202.595 181.37C204.968 182.61 206.969 184.548 208.365 186.959C209.761 189.37 210.496 192.155 210.483 194.991C210.471 197.827 209.712 200.597 208.294 202.98C207.282 204.673 205.964 206.13 204.42 207.264C201.771 209.201 198.579 210.089 195.383 209.778C192.187 209.467 189.183 207.977 186.881 205.559L186.881 205.561Z" fill="#FA8072"/>
<path opacity="0.2" d="M204.419 207.264L184.841 186.714C185.853 185.02 187.17 183.563 188.715 182.428L208.294 202.979C207.282 204.672 205.964 206.129 204.419 207.264L204.419 207.264Z" fill="black"/>
<path opacity="0.798" d="M182.777 172.751C180.887 170.767 179.557 168.249 178.94 165.489C178.322 162.729 178.444 159.84 179.29 157.159C180.136 154.478 181.672 152.113 183.719 150.341C185.766 148.568 188.241 147.46 190.856 147.145C193.47 146.83 196.118 147.321 198.491 148.56C200.864 149.8 202.864 151.738 204.26 154.15C205.657 156.561 206.391 159.346 206.379 162.182C206.366 165.018 205.607 167.788 204.19 170.17C203.177 171.864 201.86 173.32 200.315 174.454C197.667 176.391 194.475 177.28 191.279 176.969C188.083 176.659 185.079 175.169 182.777 172.751Z" fill="#FA8072"/>
<path opacity="0.2" d="M200.315 174.454L180.737 153.904C181.749 152.211 183.066 150.754 184.611 149.619L204.19 170.169C203.178 171.863 201.86 173.32 200.315 174.454Z" fill="black"/>
<path opacity="0.798" d="M307.64 165.866C305.751 163.882 304.42 161.364 303.803 158.604C303.186 155.844 303.307 152.955 304.153 150.274C304.999 147.593 306.535 145.228 308.582 143.456C310.63 141.683 313.104 140.575 315.719 140.26C318.334 139.944 320.981 140.435 323.354 141.675C325.727 142.915 327.728 144.853 329.124 147.264C330.52 149.675 331.255 152.461 331.242 155.297C331.23 158.133 330.471 160.903 329.053 163.285C328.041 164.979 326.723 166.435 325.179 167.569C322.53 169.506 319.338 170.394 316.142 170.083C312.946 169.773 309.942 168.282 307.64 165.865L307.64 165.866Z" fill="#FA8072"/>
<path opacity="0.2" d="M325.179 167.569L305.6 147.019C306.612 145.325 307.93 143.868 309.475 142.734L329.053 163.284C328.041 164.978 326.724 166.435 325.179 167.569Z" fill="black"/>
</g>
</svg>
