<?xml version="1.0" encoding="UTF-8"?>
<svg width="1030" height="332" viewBox="0 0 1030 332" xmlns="http://www.w3.org/2000/svg">
  <g fill-rule="nonzero" fill="none">
    <path d="M.52 151.15v-.99c0-1.19 1.15-2.77 2.3-3.37l78.87-41.98c2.99-1.59 6.44 0 6.44 3.17v10.5c0 1.59-1.15 2.97-2.3 3.56L31.1 150.56l54.73 27.53c1.15.6 2.3 1.98 2.3 3.37v10.5c0 3.17-3.45 4.75-6.44 3.17l-78.87-40.6c-1.15-.61-2.3-2.19-2.3-3.38zM941.87 181.45c0-1.39.92-2.77 2.3-3.37l54.49-27.53-54.49-28.52c-1.38-.59-2.3-1.98-2.3-3.56v-10.5c0-3.17 3.45-4.75 6.44-3.17l78.87 41.98c1.15.59 2.3 2.18 2.3 3.37v.99c0 1.19-1.15 2.77-2.3 3.37l-78.87 40.6c-2.99 1.58-6.44 0-6.44-3.17v-10.49z" fill="#2A426B"/>
    <g fill="#2A426B">
      <path d="M112.66 195.5c2.11-3.05 3.99-6.57 6.1-9.62 2.11-3.05 5.4-3.99 7.98-1.87 1.41 1.17 19.48 16.19 37.54 16.19 16.19 0 26.52-9.86 26.52-21.82 0-14.08-12.2-23-35.43-32.62-23.94-10.09-42.71-22.53-42.71-49.75 0-18.3 14.08-43.41 51.39-43.41 23.47 0 41.07 12.2 43.42 13.85 1.87 1.17 3.75 4.46 1.41 7.98-1.88 2.81-3.99 6.1-5.87 8.91-1.88 3.05-4.93 4.46-8.21 2.35-1.65-.93-18.07-11.73-31.68-11.73-19.71 0-26.52 12.44-26.52 21.12 0 13.37 10.33 21.59 29.8 29.57 27.22 11.03 50.46 23.94 50.46 52.57 0 24.4-21.82 44.35-52.33 44.35-28.63 0-46.7-15.02-50.45-18.54-2.12-1.9-3.76-3.54-1.42-7.53zM268.01 159.83c9.85 0 18.54 2.81 18.54 2.81.23-14.78-2.58-20.64-14.55-20.64-10.79 0-21.35 2.82-26.28 4.23-2.82.7-4.46-1.17-5.17-3.75l-1.88-8.68c-.7-3.05.94-4.69 3.05-5.4 1.64-.7 15.02-5.39 32.38-5.39 30.04 0 32.86 18.3 32.86 41.77v49.98c0 2.35-2.11 4.46-4.46 4.46h-6.57c-2.11 0-3.05-.94-3.99-3.29l-2.35-6.33c-5.16 4.93-14.31 11.97-28.86 11.97-17.6 0-30.28-11.97-30.28-31.44.01-17.16 13.62-30.3 37.56-30.3zm-2.82 45.06c9.39 0 18.3-7.04 21.12-11.74v-15.02c-1.41-.93-7.98-3.75-16.43-3.75-11.26 0-19.01 5.87-19.01 15.49.01 8.45 5.64 15.02 14.32 15.02zM333.23 129.8c0-2.35 2.11-4.46 4.46-4.46h6.81c1.88 0 3.29 1.17 3.75 2.81l2.82 7.98c1.64-1.88 14.08-13.14 32.85-13.14 28.63 0 39.19 20.18 39.19 44.58v47.17c0 2.35-2.11 4.46-4.46 4.46h-13.37c-2.58 0-4.46-2.11-4.46-4.46v-48.1c0-15.02-7.28-23.24-19.48-23.24-14.79 0-24.88 10.8-26.05 14.08v57.26c0 3.05-1.41 4.46-5.39 4.46h-12.2c-2.35 0-4.46-2.11-4.46-4.46V129.8h-.01zM488.58 122.99c11.97 0 20.42 4.46 22.53 5.16V59.4c0-2.35 2.11-4.46 4.46-4.46h13.61c2.35 0 4.46 2.11 4.46 4.46v155.35c0 2.35-2.11 4.46-4.46 4.46h-7.04c-2.11 0-3.52-1.64-4.22-3.99l-1.88-6.81s-11.27 13.14-29.8 13.14c-24.87 0-43.88-22.29-43.88-49.28-.01-27.46 20.17-49.28 46.22-49.28zm.47 78.38c14.31 0 21.12-11.5 22.29-14.08v-38.25s-8.21-5.63-20.42-5.63c-15.72 0-26.75 12.91-26.75 28.86 0 15.72 9.86 29.1 24.88 29.1zM560.85 59.4c0-2.35 2.11-4.46 4.46-4.46h13.61c2.35 0 4.46 2.11 4.46 4.46v68.76c2.11-.7 10.56-5.16 22.53-5.16 26.05 0 46.23 21.82 46.23 49.28 0 26.99-19.01 49.28-43.88 49.28-18.54 0-29.8-13.14-29.8-13.14l-1.87 6.81c-.71 2.35-2.11 3.99-4.23 3.99h-7.04c-2.35 0-4.46-2.11-4.46-4.46V59.4h-.01zm44.59 141.97c15.02 0 24.87-13.38 24.87-29.1 0-15.95-11.03-28.86-26.75-28.86-12.2 0-20.42 5.4-20.42 5.4v38.48c1.18 2.58 7.98 14.08 22.3 14.08zM712.91 122.99c26.28 0 47.4 22.53 47.4 49.04 0 26.99-21.12 49.52-47.4 49.52-26.28 0-47.4-22.53-47.4-49.52-.01-26.51 21.11-49.04 47.4-49.04zm0 78.38c14.79 0 26.52-13.14 26.52-29.34 0-15.72-11.73-28.63-26.52-28.63s-26.52 12.91-26.52 28.63c0 16.2 11.73 29.34 26.52 29.34zM801.6 171.33l-29.57-39.66c-2.35-3.05-.71-6.33 2.81-6.33h15.25c2.11 0 4.23.7 5.63 2.58l18.77 26.99h.24l19.24-26.99c1.17-1.64 3.05-2.58 5.4-2.58h15.49c3.99 0 5.17 3.05 2.82 6.1l-29.57 39.66 29.8 42.01c2.11 3.05.94 6.1-2.81 6.1h-14.79c-1.88 0-3.75-1.17-4.93-2.81l-20.65-29.1h-.24l-21.12 30.04c-.7.94-1.87 1.88-3.75 1.88H773.9c-3.99 0-4.93-3.05-2.81-6.1l30.51-41.79z"/>
    </g>
    <path d="M880.2 331.27l-58.05-16.81c-1.05-.3-1.92-1.05-2.42-2.08s-.59-2.24-.24-3.38c7.03-23.12 19.66-62.63 25.22-67.51 6.41-5.63 19.65-3.38 26.97-1.53 11.2 2.84 25.36 9.06 28.36 17.32 2.63 7.25-8.07 47.49-14.68 70.83-.32 1.14-1.05 2.11-2.01 2.7-.96.59-2.11.77-3.15.46z" fill="#2A426B"/>
    <path d="M878.88 321.04c-.25-.07-.61-.26-.92-.74-2.02-3.02-.43-14.97 4.6-34.54 6.23-24.27 1.47-26.41-12.63-32.79-.44-.2-1.46-.66-1.27-1.7.07-.37.34-1 1.38-1.1 3.07-.3 20.3 3.3 22.98 12.95 1.89 6.78-11.3 52.02-12.81 57.15-.15.5-.59.83-1.06.81a.93.93 0 0 1-.27-.04z" fill="#FFF" opacity=".41"/>
    <path d="M917.39 42.08c-7.35-7.36-9.73-18.95-6.63-29.63l2.69-9.28c.54-1.86 2.36-2.97 4.07-2.47l50.62 14.66c1.71.49 2.66 2.4 2.12 4.26l-2.26 7.8c-6.41 22.09-32.62 32.67-50.61 14.66zm5.39-25.61c-1.67 9.15 3.26 18.09 11.66 20.52 8.39 2.43 17.34-2.49 20.82-11.12l-32.48-9.4zM886.27 231.55l-15.97-4.62a.977.977 0 0 1-.67-1.21l47.58-164.28c.15-.52.69-.82 1.21-.67l15.97 4.62c.52.15.82.69.67 1.21l-47.58 164.28c-.15.52-.69.82-1.21.67z" fill="#2A426B"/>
  </g>
</svg>