<?xml version="1.0" encoding="UTF-8"?>
<svg width="1030px" height="332px" viewBox="-40 -40 1110 412" version="1.1" xmlns="http://www.w3.org/2000/svg" xmlns:xlink="http://www.w3.org/1999/xlink">
    <!-- Generator: Sketch 54.1 (76490) - https://sketchapp.com -->
    <title>sandbox_banner_svg_-04</title>
    <desc>Created with Sketch.</desc>
    <defs>
        <filter id="dropshadow" y="-20%" height="300%" x="-40%" width="200%">
          <feGaussianBlur in="SourceAlpha" stdDeviation="30" id="shovelBlur" />
          <feOffset dx="3" dy="3" result="offsetblur" />
          <feComponentTransfer>
            <feFuncA type="linear" slope="0.7" />
          </feComponentTransfer>
          <feMerge>
            <feMergeNode />
            <feMergeNode in="SourceGraphic" />
          </feMerge>
        </filter>
    </defs>
    <g id="Page-1" stroke="none" stroke-width="1" fill="none" fill-rule="evenodd" >
        <g id="sandbox_banner_svg_-04" fill-rule="nonzero" filter="url(#dropshadow)">
            <g id="Group">
                <path d="M0.52,151.15 L0.52,150.16 C0.52,148.97 1.67,147.39 2.82,146.79 L81.69,104.81 C84.68,103.22 88.13,104.81 88.13,107.98 C88.13,111.15 88.13,110.16 88.13,118.48 C88.13,120.07 86.98,121.45 85.83,122.04 L31.1,150.56 L85.83,178.09 C86.98,178.69 88.13,180.07 88.13,181.46 C88.13,189.78 88.13,188.99 88.13,191.96 C88.13,195.13 84.68,196.71 81.69,195.13 L2.82,154.53 C1.67,153.92 0.52,152.34 0.52,151.15 Z" id="Path" fill="#FFFFFF"></path>
                <path d="M941.87,181.45 C941.87,180.06 942.79,178.68 944.17,178.08 L998.66,150.55 L944.17,122.03 C942.79,121.44 941.87,120.05 941.87,118.47 C941.87,110.15 941.87,111.14 941.87,107.97 C941.87,104.8 945.32,103.22 948.31,104.8 L1027.18,146.78 C1028.33,147.37 1029.48,148.96 1029.48,150.15 L1029.48,151.14 C1029.48,152.33 1028.33,153.91 1027.18,154.51 L948.31,195.11 C945.32,196.69 941.87,195.11 941.87,191.94 C941.87,188.98 941.87,189.77 941.87,181.45 Z" id="Path" fill="#FFFFFF"></path>
                <g transform="translate(111.000000, 52.000000)" fill="#FFFFFF">
                    <path d="M1.66,143.5 C3.77,140.45 5.65,136.93 7.76,133.88 C9.87,130.83 13.16,129.89 15.74,132.01 C17.15,133.18 35.22,148.2 53.28,148.2 C69.47,148.2 79.8,138.34 79.8,126.38 C79.8,112.3 67.6,103.38 44.37,93.76 C20.43,83.67 1.66,71.23 1.66,44.01 C1.66,25.71 15.74,0.6 53.05,0.6 C76.52,0.6 94.12,12.8 96.47,14.45 C98.34,15.62 100.22,18.91 97.88,22.43 C96,25.24 93.89,28.53 92.01,31.34 C90.13,34.39 87.08,35.8 83.8,33.69 C82.15,32.76 65.73,21.96 52.12,21.96 C32.41,21.96 25.6,34.4 25.6,43.08 C25.6,56.45 35.93,64.67 55.4,72.65 C82.62,83.68 105.86,96.59 105.86,125.22 C105.86,149.62 84.04,169.57 53.53,169.57 C24.9,169.57 6.83,154.55 3.08,151.03 C0.96,149.13 -0.68,147.49 1.66,143.5 Z" id="Path"></path>
                    <path d="M157.01,107.83 C166.86,107.83 175.55,110.64 175.55,110.64 C175.78,95.86 172.97,90 161,90 C150.21,90 139.65,92.82 134.72,94.23 C131.9,94.93 130.26,93.06 129.55,90.48 L127.67,81.8 C126.97,78.75 128.61,77.11 130.72,76.4 C132.36,75.7 145.74,71.01 163.1,71.01 C193.14,71.01 195.96,89.31 195.96,112.78 L195.96,162.76 C195.96,165.11 193.85,167.22 191.5,167.22 L184.93,167.22 C182.82,167.22 181.88,166.28 180.94,163.93 L178.59,157.6 C173.43,162.53 164.28,169.57 149.73,169.57 C132.13,169.57 119.45,157.6 119.45,138.13 C119.46,120.97 133.07,107.83 157.01,107.83 Z M154.19,152.89 C163.58,152.89 172.49,145.85 175.31,141.15 L175.31,126.13 C173.9,125.2 167.33,122.38 158.88,122.38 C147.62,122.38 139.87,128.25 139.87,137.87 C139.88,146.32 145.51,152.89 154.19,152.89 Z" id="Shape"></path>
                    <path d="M222.23,77.8 C222.23,75.45 224.34,73.34 226.69,73.34 L233.5,73.34 C235.38,73.34 236.79,74.51 237.25,76.15 L240.07,84.13 C241.71,82.25 254.15,70.99 272.92,70.99 C301.55,70.99 312.11,91.17 312.11,115.57 L312.11,162.74 C312.11,165.09 310,167.2 307.65,167.2 L294.28,167.2 C291.7,167.2 289.82,165.09 289.82,162.74 L289.82,114.64 C289.82,99.62 282.54,91.4 270.34,91.4 C255.55,91.4 245.46,102.2 244.29,105.48 L244.29,162.74 C244.29,165.79 242.88,167.2 238.9,167.2 L226.7,167.2 C224.35,167.2 222.24,165.09 222.24,162.74 L222.24,77.8 L222.23,77.8 Z" id="Path"></path>
                    <path d="M377.58,70.99 C389.55,70.99 398,75.45 400.11,76.15 L400.11,7.4 C400.11,5.05 402.22,2.94 404.57,2.94 L418.18,2.94 C420.53,2.94 422.64,5.05 422.64,7.4 L422.64,162.75 C422.64,165.1 420.53,167.21 418.18,167.21 L411.14,167.21 C409.03,167.21 407.62,165.57 406.92,163.22 L405.04,156.41 C405.04,156.41 393.77,169.55 375.24,169.55 C350.37,169.55 331.36,147.26 331.36,120.27 C331.35,92.81 351.53,70.99 377.58,70.99 Z M378.05,149.37 C392.36,149.37 399.17,137.87 400.34,135.29 L400.34,97.04 C400.34,97.04 392.13,91.41 379.92,91.41 C364.2,91.41 353.17,104.32 353.17,120.27 C353.17,135.99 363.03,149.37 378.05,149.37 Z" id="Shape"></path>
                    <path d="M449.85,7.4 C449.85,5.05 451.96,2.94 454.31,2.94 L467.92,2.94 C470.27,2.94 472.38,5.05 472.38,7.4 L472.38,76.16 C474.49,75.46 482.94,71 494.91,71 C520.96,71 541.14,92.82 541.14,120.28 C541.14,147.27 522.13,169.56 497.26,169.56 C478.72,169.56 467.46,156.42 467.46,156.42 L465.59,163.23 C464.88,165.58 463.48,167.22 461.36,167.22 L454.32,167.22 C451.97,167.22 449.86,165.11 449.86,162.76 L449.86,7.4 L449.85,7.4 Z M494.44,149.37 C509.46,149.37 519.31,135.99 519.31,120.27 C519.31,104.32 508.28,91.41 492.56,91.41 C480.36,91.41 472.14,96.81 472.14,96.81 L472.14,135.29 C473.32,137.87 480.12,149.37 494.44,149.37 Z" id="Shape"></path>
                    <path d="M601.91,70.99 C628.19,70.99 649.31,93.52 649.31,120.03 C649.31,147.02 628.19,169.55 601.91,169.55 C575.63,169.55 554.51,147.02 554.51,120.03 C554.5,93.52 575.62,70.99 601.91,70.99 Z M601.91,149.37 C616.7,149.37 628.43,136.23 628.43,120.03 C628.43,104.31 616.7,91.4 601.91,91.4 C587.12,91.4 575.39,104.31 575.39,120.03 C575.39,136.23 587.12,149.37 601.91,149.37 Z" id="Shape"></path>
                    <path d="M690.6,119.33 L661.03,79.67 C658.68,76.62 660.32,73.34 663.84,73.34 L679.09,73.34 C681.2,73.34 683.32,74.04 684.72,75.92 L703.49,102.91 L703.73,102.91 L722.97,75.92 C724.14,74.28 726.02,73.34 728.37,73.34 L743.86,73.34 C747.85,73.34 749.03,76.39 746.68,79.44 L717.11,119.1 L746.91,161.11 C749.02,164.16 747.85,167.21 744.1,167.21 L729.31,167.21 C727.43,167.21 725.56,166.04 724.38,164.4 L703.73,135.3 L703.49,135.3 L682.37,165.34 C681.67,166.28 680.5,167.22 678.62,167.22 L662.9,167.22 C658.91,167.22 657.97,164.17 660.09,161.12 L690.6,119.33 Z" id="Path"></path>
                </g>
                <g transform="translate(819.000000, 0.000000)">
                    <g transform="translate(0.000000, 237.000000)">
                        <path d="M61.2,94.27 L3.15,77.46 C2.1,77.16 1.23,76.41 0.73,75.38 C0.23,74.35 0.14,73.14 0.49,72 C7.52,48.88 20.15,9.37 25.71,4.49 C32.12,-1.14 45.36,1.11 52.68,2.96 C63.88,5.8 78.04,12.02 81.04,20.28 C83.67,27.53 72.97,67.77 66.36,91.11 C66.04,92.25 65.31,93.22 64.35,93.81 C63.39,94.4 62.24,94.58 61.2,94.27 Z" id="Path" fill="#FFFFFF"></path>
                        <path d="M59.88,84.04 C59.63,83.97 59.27,83.78 58.96,83.3 C56.94,80.28 58.53,68.33 63.56,48.76 C69.79,24.49 65.03,22.35 50.93,15.97 C50.49,15.77 49.47,15.31 49.66,14.27 C49.73,13.9 50,13.27 51.04,13.17 C54.11,12.87 71.34,16.47 74.02,26.12 C75.91,32.9 62.72,78.14 61.21,83.27 C61.06,83.77 60.62,84.1 60.15,84.08 C60.07,84.08 59.98,84.07 59.88,84.04 Z" id="Shape" fill="#2A426B" opacity="0.3"></path>
                    </g>
                    <path d="M98.39,42.08 C91.04,34.72 88.66,23.13 91.76,12.45 L94.45,3.17 C94.99,1.31 96.81,0.2 98.52,0.7 L149.14,15.36 C150.85,15.85 151.8,17.76 151.26,19.62 L149,27.42 C142.59,49.51 116.38,60.09 98.39,42.08 Z M103.78,16.47 C102.11,25.62 107.04,34.56 115.44,36.99 C123.83,39.42 132.78,34.5 136.26,25.87 L103.78,16.47 Z" id="Shape" fill="#FFFFFF"></path>
                    <path d="M67.27,231.55 L51.3,226.93 C50.78,226.78 50.48,226.24 50.63,225.72 L98.21,61.44 C98.36,60.92 98.9,60.62 99.42,60.77 L115.39,65.39 C115.91,65.54 116.21,66.08 116.06,66.6 L68.48,230.88 C68.33,231.4 67.79,231.7 67.27,231.55 Z" id="Path" fill="#FFFFFF"></path>
                </g>
            </g>
        </g>
    </g>
</svg>