<svg width="996" height="771" viewBox="0 0 996 771" fill="none" xmlns="http://www.w3.org/2000/svg">
<rect x="0.300293" y="0.37207" width="955.441" height="593.495" fill="#BFCDE6"/>
<g clip-path="url(#clip0)">
<path d="M883.51 573.133C882.622 572.069 881.977 570.824 881.623 569.484C881.268 568.145 881.211 566.744 881.456 565.38C881.701 564.016 882.243 562.723 883.042 561.591C883.841 560.459 884.879 559.516 886.082 558.828L879.877 525.721L896.017 532.5L899.435 562.9C900.457 564.998 900.673 567.397 900.043 569.644C899.414 571.89 897.982 573.828 896.019 575.089C894.056 576.35 891.698 576.848 889.393 576.487C887.087 576.127 884.994 574.933 883.51 573.133V573.133Z" fill="#FFB6B6"/>
<path d="M845.16 190.385H136.576V526.563H845.16V190.385Z" fill="#E6E6E6"/>
<path d="M824.899 219.213H156.838V499.697H824.899V219.213Z" fill="white"/>
<path d="M844.858 170.962H136.274V201.06H844.858V170.962Z" fill="#FEB429"/>
<path d="M195.908 399.668C195.134 399.671 194.392 399.981 193.845 400.53C193.298 401.078 192.991 401.821 192.991 402.596C192.991 403.37 193.298 404.113 193.845 404.662C194.392 405.211 195.134 405.52 195.908 405.523H356.56C357.335 405.52 358.077 405.211 358.624 404.662C359.171 404.113 359.478 403.37 359.478 402.596C359.478 401.821 359.171 401.078 358.624 400.53C358.077 399.981 357.335 399.671 356.56 399.668H195.908Z" fill="#E6E6E6"/>
<path d="M195.908 417.233C195.134 417.236 194.392 417.546 193.845 418.094C193.298 418.643 192.991 419.386 192.991 420.161C192.991 420.935 193.298 421.678 193.845 422.227C194.392 422.775 195.134 423.085 195.908 423.088H277.925C278.699 423.085 279.441 422.775 279.988 422.227C280.535 421.678 280.842 420.935 280.842 420.161C280.842 419.386 280.535 418.643 279.988 418.094C279.441 417.546 278.699 417.236 277.925 417.233H195.908Z" fill="#E6E6E6"/>
<path d="M356.762 450.396H295.736C294.946 450.395 294.188 450.081 293.629 449.522C293.07 448.963 292.756 448.205 292.755 447.415V437.639C292.756 436.849 293.07 436.091 293.629 435.532C294.188 434.973 294.946 434.659 295.736 434.658H356.762C357.553 434.659 358.31 434.973 358.869 435.532C359.428 436.091 359.743 436.849 359.743 437.639V447.415C359.743 448.205 359.428 448.963 358.869 449.522C358.31 450.081 357.553 450.395 356.762 450.396Z" fill="#FEB429"/>
<path d="M356.762 348.595H295.736C294.946 348.594 294.188 348.28 293.629 347.721C293.07 347.162 292.756 346.404 292.755 345.614V335.838C292.756 335.048 293.07 334.29 293.629 333.731C294.188 333.173 294.946 332.858 295.736 332.857H356.762C357.553 332.858 358.31 333.173 358.869 333.731C359.428 334.29 359.743 335.048 359.743 335.838V345.614C359.743 346.404 359.428 347.162 358.869 347.721C358.31 348.28 357.553 348.594 356.762 348.595Z" fill="#FEB429"/>
<path d="M464.326 268.267C463.314 268.268 462.344 268.671 461.629 269.387C460.914 270.104 460.512 271.074 460.512 272.086C460.512 273.098 460.914 274.069 461.629 274.785C462.344 275.501 463.314 275.904 464.326 275.906H783.839C784.851 275.904 785.821 275.501 786.536 274.785C787.252 274.069 787.653 273.098 787.653 272.086C787.653 271.074 787.252 270.104 786.536 269.387C785.821 268.671 784.851 268.268 783.839 268.267H464.326Z" fill="#E6E6E6"/>
<path d="M464.326 291.187C463.314 291.188 462.344 291.591 461.629 292.307C460.914 293.023 460.512 293.994 460.512 295.006C460.512 296.018 460.914 296.989 461.629 297.705C462.344 298.421 463.314 298.824 464.326 298.826H681.232C682.244 298.824 683.214 298.421 683.929 297.705C684.644 296.989 685.046 296.018 685.046 295.006C685.046 293.994 684.644 293.023 683.929 292.307C683.214 291.591 682.244 291.188 681.232 291.187H464.326Z" fill="#E6E6E6"/>
<path d="M464.326 313.587C463.314 313.589 462.344 313.992 461.629 314.708C460.914 315.424 460.512 316.395 460.512 317.407C460.512 318.419 460.914 319.39 461.629 320.106C462.344 320.822 463.314 321.225 464.326 321.227H783.839C784.851 321.225 785.821 320.822 786.536 320.106C787.252 319.39 787.653 318.419 787.653 317.407C787.653 316.395 787.252 315.424 786.536 314.708C785.821 313.992 784.851 313.589 783.839 313.587H464.326Z" fill="#E6E6E6"/>
<path d="M464.326 336.507C463.314 336.509 462.344 336.912 461.629 337.628C460.914 338.344 460.512 339.315 460.512 340.327C460.512 341.339 460.914 342.31 461.629 343.026C462.344 343.742 463.314 344.145 464.326 344.147H681.232C682.244 344.145 683.214 343.742 683.929 343.026C684.644 342.31 685.046 341.339 685.046 340.327C685.046 339.315 684.644 338.344 683.929 337.628C683.214 336.912 682.244 336.509 681.232 336.507H464.326Z" fill="#E6E6E6"/>
<path d="M784.775 386.078H723.749C722.959 386.077 722.201 385.763 721.642 385.204C721.083 384.646 720.769 383.888 720.768 383.098V373.322C720.769 372.531 721.083 371.774 721.642 371.215C722.201 370.656 722.959 370.342 723.749 370.341H784.775C785.566 370.342 786.324 370.656 786.883 371.215C787.441 371.774 787.756 372.531 787.757 373.322V383.098C787.756 383.888 787.441 384.646 786.883 385.204C786.324 385.763 785.566 386.077 784.775 386.078Z" fill="#FEB429"/>
<path d="M265.1 272.404C264.016 272.408 263.138 273.816 263.141 275.549C263.143 277.277 264.019 278.677 265.1 278.681H357.66C358.744 278.677 359.621 277.269 359.619 275.536C359.617 273.808 358.741 272.408 357.66 272.404H265.1Z" fill="#E4E4E4"/>
<path d="M265.1 290.589C264.016 290.593 263.138 292.001 263.141 293.734C263.143 295.462 264.019 296.862 265.1 296.866H357.66C358.744 296.862 359.621 295.455 359.619 293.721C359.617 291.993 358.741 290.593 357.66 290.589H265.1Z" fill="#E4E4E4"/>
<path d="M265.1 308.554C264.016 308.558 263.138 309.965 263.141 311.699C263.143 313.427 264.019 314.827 265.1 314.831H304.929C306.013 314.827 306.89 313.419 306.888 311.686C306.886 309.958 306.01 308.558 304.929 308.554H265.1Z" fill="#E4E4E4"/>
<path d="M218.103 318.492C231.975 318.492 243.22 307.249 243.22 293.379C243.22 279.51 231.975 268.267 218.103 268.267C204.232 268.267 192.986 279.51 192.986 293.379C192.986 307.249 204.232 318.492 218.103 318.492Z" fill="#E4E4E4"/>
<path d="M738.184 381.105C738.006 382.48 738.132 383.876 738.552 385.196C738.973 386.517 739.678 387.729 740.617 388.748C741.557 389.766 742.708 390.567 743.991 391.092C745.273 391.618 746.655 391.856 748.039 391.79L760.593 423.048L770.564 408.66L757.115 381.183C756.849 378.865 755.742 376.725 754.004 375.169C752.266 373.612 750.017 372.747 747.684 372.737C745.351 372.728 743.095 373.574 741.344 375.117C739.593 376.659 738.469 378.79 738.184 381.105Z" fill="#FFB6B6"/>
<path d="M879.716 757.038H868.159L862.66 712.464L879.719 712.465L879.716 757.038Z" fill="#FFB6B6"/>
<path d="M882.664 768.24L845.396 768.239V767.767C845.396 763.921 846.925 760.232 849.645 757.512C852.365 754.792 856.055 753.264 859.902 753.264H859.903L882.665 753.265L882.664 768.24Z" fill="#2F2E41"/>
<path d="M841.894 756.671L830.875 753.183L839.088 709.028L855.351 714.177L841.894 756.671Z" fill="#FFB6B6"/>
<path d="M841.323 768.24L805.793 756.993L805.936 756.544C807.097 752.877 809.668 749.821 813.082 748.049C816.496 746.277 820.475 745.933 824.143 747.094L824.144 747.094L845.844 753.964L841.323 768.24Z" fill="#2F2E41"/>
<path d="M828.205 539.188C828.205 539.188 811.056 566.111 817.116 590.14C823.176 614.169 829.775 660.356 829.775 660.356L862.632 738.539L887.125 737.54L862.802 645.36L863.764 583.727C863.764 583.727 880.669 554.271 877.377 545.102C874.085 535.933 828.205 539.188 828.205 539.188Z" fill="#2F2E41"/>
<path d="M884.231 548.814C884.231 548.814 886.341 575.522 879.741 586.833C873.142 598.144 866.111 641.196 866.111 641.196L854.894 727.299L831.661 719.74L851.472 623.272L867.044 547.389L884.231 548.814Z" fill="#2F2E41"/>
<path d="M892.469 419.522L874.342 407.064L846.756 406.263L837.15 415.679L822.49 423.164L821.132 545.102C821.132 545.102 865.032 566.14 888.65 555.985L900.011 460.996C904.725 442.144 892.469 419.522 892.469 419.522Z" fill="#3F3D56"/>
<path d="M826.172 455.75H777.819L746.052 401.077L766.708 392.896L784.202 424.01L809.522 421.718L825.331 420.954C827.865 420.832 830.394 421.264 832.743 422.221C835.092 423.178 837.203 424.637 838.929 426.495C840.656 428.353 841.955 430.566 842.736 432.979C843.518 435.391 843.762 437.946 843.453 440.463C842.931 444.679 840.887 448.559 837.704 451.374C834.522 454.189 830.421 455.745 826.172 455.75Z" fill="#3F3D56"/>
<path d="M862.798 396.221C876.008 396.221 886.716 385.515 886.716 372.307C886.716 359.1 876.008 348.394 862.798 348.394C849.589 348.394 838.88 359.1 838.88 372.307C838.88 385.515 849.589 396.221 862.798 396.221Z" fill="#FFB6B6"/>
<path d="M891.617 366.867C890.882 361.617 887.326 356.632 882.269 355.041C880.259 349.208 874.938 344.913 869.058 343.041C863.613 341.305 857.746 341.426 852.377 343.384C847.008 345.341 842.441 349.026 839.392 353.859C838.942 354.566 837.559 356.304 837.597 357.148C837.646 358.22 839.287 359.327 840.111 360.003C842.153 361.581 844.356 362.94 846.682 364.058C855.283 368.516 852.42 375.523 852.303 383.462C852.247 387.32 853.535 390.614 856.825 392.818C861.574 395.999 868.37 394.733 873.537 393.457C879.4 392.008 884.275 386.859 887.618 381.894C890.58 377.496 892.352 372.117 891.617 366.867Z" fill="#2F2E41"/>
<path d="M891.783 450.655L901.09 552.722L871.188 551.119L891.783 450.655Z" fill="#3F3D56"/>
<path d="M994.815 770.962H628.747C628.45 770.961 628.165 770.842 627.956 770.632C627.746 770.422 627.628 770.137 627.628 769.84C627.628 769.543 627.746 769.258 627.956 769.047C628.165 768.837 628.45 768.718 628.747 768.717H994.815C995.113 768.717 995.399 768.836 995.609 769.046C995.82 769.256 995.938 769.542 995.938 769.84C995.938 770.137 995.82 770.423 995.609 770.633C995.399 770.844 995.113 770.962 994.815 770.962Z" fill="#CACACA"/>
<path d="M158.214 759.772H167.179L171.444 725.198H158.212L158.214 759.772Z" fill="#9E616A"/>
<path d="M155.927 756.845L173.582 756.845H173.583C176.567 756.845 179.429 758.03 181.539 760.14C183.649 762.249 184.834 765.111 184.834 768.094V768.46L155.927 768.461L155.927 756.845Z" fill="#2F2E41"/>
<path d="M240.846 759.772H249.81L254.075 725.198H240.844L240.846 759.772Z" fill="#9E616A"/>
<path d="M238.559 756.845L256.214 756.845H256.215C259.199 756.845 262.06 758.03 264.17 760.14C266.28 762.249 267.466 765.111 267.466 768.094V768.46L238.559 768.461L238.559 756.845Z" fill="#2F2E41"/>
<path d="M230.021 482.016L235.871 519.303L180.296 520.035L187.608 484.21L230.021 482.016Z" fill="#9E616A"/>
<path d="M234.258 510.199L251.959 557.323L254.153 752.609H239.162L203.33 595.707L170.424 748.513H155.799L166.036 576.698C166.036 576.698 163.017 542.212 178.468 521.863L182.228 511L234.258 510.199Z" fill="#2F2E41"/>
<path d="M158.333 546.934C159.88 546.513 161.317 545.757 162.54 544.721C163.764 543.684 164.745 542.392 165.416 540.935C166.086 539.478 166.428 537.892 166.419 536.288C166.41 534.685 166.049 533.103 165.362 531.654L189.005 454.586L171.615 451.14L149.991 526.682C147.633 527.997 145.839 530.131 144.95 532.681C144.06 535.23 144.137 538.016 145.165 540.513C146.193 543.009 148.102 545.042 150.529 546.225C152.956 547.409 155.732 547.661 158.333 546.934Z" fill="#9E616A"/>
<path d="M189.515 502.61C189.191 502.61 188.867 502.578 188.549 502.515C187.479 502.301 186.508 501.742 185.785 500.925C185.062 500.107 184.627 499.076 184.546 497.988C183.996 490.463 181.272 477.364 176.45 459.054C174.822 452.831 175.182 446.255 177.481 440.247C179.779 434.239 183.901 429.101 189.267 425.553C194.633 422.005 200.975 420.225 207.404 420.462C213.833 420.7 220.026 422.942 225.116 426.876C228.375 429.372 231.095 432.502 233.112 436.077C235.13 439.652 236.402 443.598 236.854 447.677C239.251 468.78 234.732 489.967 232.678 498.097C232.409 499.159 231.798 500.102 230.941 500.783C230.083 501.465 229.026 501.846 227.931 501.87L189.622 502.609C189.586 502.61 189.551 502.61 189.515 502.61Z" fill="#3F3D56"/>
<path d="M296.545 434.914C296.315 435.43 296.126 435.963 295.979 436.509L248.027 452.801L238.761 444.708L224.717 457.093L239.728 473.014C240.94 474.3 242.538 475.159 244.28 475.46C246.022 475.761 247.814 475.49 249.389 474.685L300.701 448.48C302.557 449.618 304.715 450.164 306.889 450.046C309.062 449.928 311.148 449.15 312.87 447.818C314.591 446.485 315.865 444.66 316.524 442.586C317.182 440.511 317.194 438.285 316.556 436.204C315.918 434.123 314.662 432.286 312.955 430.936C311.247 429.586 309.169 428.788 306.996 428.648C304.824 428.508 302.66 429.032 300.793 430.151C298.926 431.271 297.444 432.932 296.545 434.914V434.914Z" fill="#9E616A"/>
<path d="M246.355 453.691L228.874 468.957C228.377 469.391 227.792 469.713 227.159 469.901C226.526 470.089 225.859 470.138 225.206 470.045C224.552 469.953 223.926 469.72 223.37 469.364C222.814 469.007 222.341 468.535 221.985 467.979L209.481 448.512C207.27 445.956 206.164 442.627 206.406 439.256C206.647 435.885 208.216 432.747 210.768 430.531C213.321 428.316 216.648 427.203 220.02 427.437C223.392 427.671 226.533 429.233 228.755 431.78L246.313 446.734C246.816 447.162 247.22 447.694 247.499 448.292C247.777 448.891 247.923 449.543 247.927 450.203C247.931 450.863 247.793 451.517 247.522 452.119C247.25 452.721 246.852 453.257 246.355 453.691H246.355Z" fill="#3F3D56"/>
<path d="M186.243 474.319L164.64 465.833C164.026 465.592 163.47 465.221 163.012 464.745C162.554 464.27 162.203 463.702 161.984 463.079C161.766 462.456 161.684 461.793 161.744 461.135C161.805 460.478 162.007 459.841 162.336 459.268L173.861 439.207C175.115 436.07 177.561 433.557 180.664 432.22C183.767 430.883 187.274 430.832 190.416 432.076C193.557 433.321 196.077 435.76 197.422 438.859C198.767 441.958 198.828 445.464 197.592 448.609L192.4 471.078C192.252 471.721 191.966 472.325 191.563 472.847C191.159 473.37 190.648 473.8 190.064 474.108C189.479 474.415 188.836 474.593 188.176 474.63C187.517 474.666 186.857 474.56 186.243 474.319Z" fill="#3F3D56"/>
<path d="M202.257 415.712C215.234 415.712 225.755 405.193 225.755 392.218C225.755 379.242 215.234 368.724 202.257 368.724C189.279 368.724 178.758 379.242 178.758 392.218C178.758 405.193 189.279 415.712 202.257 415.712Z" fill="#9E616A"/>
<path d="M446.129 770.962H80.0607C79.7635 770.961 79.4788 770.842 79.269 770.632C79.0592 770.422 78.9414 770.137 78.9414 769.84C78.9414 769.543 79.0592 769.258 79.269 769.047C79.4788 768.837 79.7635 768.718 80.0607 768.717H446.129C446.426 768.718 446.711 768.837 446.921 769.047C447.13 769.258 447.248 769.543 447.248 769.84C447.248 770.137 447.13 770.422 446.921 770.632C446.711 770.842 446.426 770.961 446.129 770.962Z" fill="#CACACA"/>
<path d="M218.421 382.773C223.463 382.745 228.504 382.716 233.546 382.688C233.905 379.252 232.375 375.834 230.147 373.195C227.799 370.655 225.121 368.442 222.185 366.613C219.293 364.629 216.297 362.6 212.86 361.906C209.978 361.325 206.999 361.729 204.088 362.133C200.228 362.67 196.367 363.207 192.506 363.744C188.269 364.333 183.835 364.999 180.393 367.54C175.738 370.977 173.957 376.998 172.462 382.586L164.183 413.519L213.084 418.647C214.853 418.952 216.665 418.899 218.413 418.492C219.284 418.273 220.071 417.804 220.677 417.141C221.283 416.479 221.681 415.653 221.821 414.767C221.962 412.773 220.38 411.141 219.095 409.609C216.03 405.812 214.191 401.174 213.819 396.309C213.448 391.444 214.563 386.581 217.017 382.363L218.421 382.773Z" fill="#2F2E41"/>
</g>
<defs>
<clipPath id="clip0">
<rect width="917" height="600" fill="white" transform="translate(78.938 170.962)"/>
</clipPath>
</defs>
</svg>
